<svg xmlns="http://www.w3.org/2000/svg" viewBox="0 0 88 88" shape-rendering="crispEdges" role="img" aria-label="Monstruo pixel art">
  <rect width="88" height="88" fill="none"/>
  <rect x="20" y="14" width="12" height="8" fill="#2f2440"/>
  <rect x="56" y="14" width="12" height="8" fill="#2f2440"/>
  <rect x="16" y="22" width="56" height="12" fill="#4b315f"/>
  <rect x="12" y="34" width="64" height="24" fill="#2f2440"/>
  <rect x="20" y="28" width="48" height="24" fill="#5d3b75"/>
  <rect x="26" y="34" width="10" height="8" fill="#ff4ed6"/>
  <rect x="52" y="34" width="10" height="8" fill="#ff4ed6"/>
  <rect x="36" y="44" width="16" height="8" fill="#120d16"/>
  <rect x="30" y="56" width="28" height="8" fill="#120d16"/>
  <rect x="34" y="56" width="4" height="8" fill="#efe5ef"/>
  <rect x="50" y="56" width="4" height="8" fill="#efe5ef"/>
  <rect x="8" y="42" width="12" height="22" fill="#251b33"/>
  <rect x="68" y="42" width="12" height="22" fill="#251b33"/>
  <rect x="14" y="62" width="14" height="10" fill="#1b1524"/>
  <rect x="60" y="62" width="14" height="10" fill="#1b1524"/>
  <rect x="22" y="72" width="16" height="8" fill="#120d16"/>
  <rect x="50" y="72" width="16" height="8" fill="#120d16"/>
  <rect x="8" y="18" width="12" height="6" fill="#8460aa"/>
  <rect x="68" y="18" width="12" height="6" fill="#8460aa"/>
  <rect x="4" y="12" width="8" height="6" fill="#b58ce0"/>
  <rect x="76" y="12" width="8" height="6" fill="#b58ce0"/>
</svg>
